<svg width="113" height="30" viewBox="0 0 113 30" fill="none" xmlns="http://www.w3.org/2000/svg">
<rect x="0.513672" y="0.374512" width="29" height="29" rx="4" fill="#F7921C"/>
<rect x="0.513672" y="0.374512" width="29" height="29" rx="4" fill="url(#paint0_linear)"/>
<path d="M10.4355 14.6212C10.4355 13.5521 11.3195 12.6855 12.4099 12.6855H18.3328C19.4232 12.6855 20.3071 13.5521 20.3071 14.6212V25.267C20.3071 26.336 19.4232 27.2026 18.3328 27.2026H12.4099C11.3195 27.2026 10.4355 26.336 10.4355 25.267V14.6212Z" fill="#F6F6F6"/>
<path d="M12.7583 10.1049C12.7583 9.60607 13.2783 9.20166 13.9197 9.20166C14.5611 9.20166 15.081 9.60607 15.081 10.1049V12.3631C15.081 12.862 14.5611 13.2664 13.9197 13.2664C13.2783 13.2664 12.7583 12.862 12.7583 12.3631V10.1049Z" fill="#F6F6F6"/>
<path d="M18.3182 10.3822C18.5985 9.4615 18.5705 8.4745 18.2384 7.57121C17.9064 6.66793 17.2885 5.89777 16.4786 5.37783C15.6688 4.85789 14.7113 4.6166 13.7518 4.69067C12.7923 4.76473 11.8832 5.15008 11.1627 5.78814L12.059 6.80013C12.559 6.3573 13.1899 6.08986 13.8558 6.03846C14.5218 5.98706 15.1863 6.15452 15.7483 6.51536C16.3103 6.87621 16.7392 7.41072 16.9696 8.03761C17.2001 8.66451 17.2195 9.34951 17.025 9.98846L18.3182 10.3822Z" fill="#F6F6F6"/>
<path d="M20.4257 11.024C20.8458 9.64424 20.8038 8.16503 20.3062 6.81129C19.8085 5.45755 18.8825 4.30333 17.6688 3.5241C16.4551 2.74487 15.0202 2.38327 13.5821 2.49426C12.1441 2.60526 10.7817 3.18278 9.70191 4.13903L10.5485 5.09493C11.42 4.3231 12.5197 3.85695 13.6804 3.76736C14.8411 3.67777 15.9993 3.96964 16.9789 4.59859C17.9586 5.22754 18.706 6.15917 19.1077 7.25184C19.5093 8.34451 19.5432 9.53845 19.2042 10.6521L20.4257 11.024Z" fill="#F6F6F6"/>
<path d="M38.584 21.3755H41.246V14.4895C41.246 12.7295 42.456 11.8495 43.776 11.8495C45.074 11.8495 45.822 12.5755 45.822 14.2695V21.3755H48.484V14.4895C48.484 12.7295 49.694 11.8495 51.014 11.8495C52.334 11.8495 53.06 12.5755 53.06 14.2695V21.3755H55.722V14.0935C55.722 10.9255 54.006 9.62755 51.894 9.62755C50.464 9.62755 48.88 10.2655 48 11.6955C47.428 10.2655 46.24 9.62755 44.744 9.62755C43.05 9.62755 41.796 10.5515 41.246 11.6295V9.86955H38.584V21.3755Z" fill="white"/>
<path d="M57.5693 21.3755H60.2313V9.31955L67.3153 21.3755H70.3513V5.64555H67.6893V17.0195L61.0673 5.64555H57.5693V21.3755Z" fill="white"/>
<path d="M77.3525 19.5275C75.3285 19.5275 74.1625 18.0535 74.1625 15.6995V15.5235C74.1625 13.1475 75.3725 11.7175 77.3525 11.7175C79.3325 11.7175 80.5205 13.1695 80.5205 15.5455V15.6995C80.5205 18.0535 79.3325 19.5275 77.3525 19.5275ZM77.3305 21.5955C80.7185 21.5955 83.2485 19.2635 83.2485 15.6775V15.5015C83.2485 11.9815 80.7185 9.62755 77.3525 9.62755C73.9645 9.62755 71.4345 12.0035 71.4345 15.5675V15.7435C71.4345 19.2415 73.9425 21.5955 77.3305 21.5955Z" fill="white"/>
<path d="M88.1397 21.5735C88.9537 21.5735 89.5257 21.4415 89.9437 21.2875V19.1755C89.5697 19.3295 89.1737 19.3955 88.6457 19.3955C87.8097 19.3955 87.3257 18.9335 87.3257 17.9215V11.8715H89.8557V9.86955H87.3257V7.33955H84.6637V9.86955H83.1237V11.8715H84.6637V18.1635C84.6637 20.3415 85.8517 21.5735 88.1397 21.5735Z" fill="white"/>
<path d="M90.9808 21.3755H93.6428V9.86955H90.9808V21.3755ZM92.2788 7.97755C93.1588 7.97755 93.8628 7.31755 93.8628 6.45955C93.8628 5.57955 93.1588 4.91955 92.2788 4.91955C91.3988 4.91955 90.6948 5.57955 90.6948 6.45955C90.6948 7.31755 91.3988 7.97755 92.2788 7.97755Z" fill="white"/>
<path d="M95.9194 21.3755H98.5814V11.8715H101.199V9.86955H98.5814V8.21955C98.5814 7.22955 99.0214 6.52555 100.099 6.52555C100.583 6.52555 101.001 6.61355 101.309 6.72355V4.65555C100.825 4.50155 100.429 4.43555 99.7914 4.43555C97.3274 4.43555 95.9194 5.79955 95.9194 8.32955V9.86955H94.3574V11.8715H95.9194V21.3755Z" fill="white"/>
<path d="M103.489 25.3135H106.107L112.377 9.86955H109.781L106.965 17.2835L103.907 9.86955H101.025L105.579 20.2095L103.489 25.3135Z" fill="white"/>
<defs>
<linearGradient id="paint0_linear" x1="4.60342" y1="1.86169" x2="17.988" y2="24.1694" gradientUnits="userSpaceOnUse">
<stop stop-color="#FDA845"/>
<stop offset="1" stop-color="#F7921C"/>
</linearGradient>
</defs>
</svg>
